<mxfile host="65bd71144e">
    <diagram id="NUAbZN2KeOPr095XMEzm" name="Page-1">
        <mxGraphModel dx="932" dy="389" grid="0" gridSize="10" guides="0" tooltips="0" connect="1" arrows="1" fold="1" page="0" pageScale="1.5" pageWidth="1169" pageHeight="826" background="none" math="0" shadow="0">
            <root>
                <mxCell id="0" style=";html=1;"/>
                <mxCell id="1" style=";html=1;" parent="0"/>
                <mxCell id="2" value="" style="rounded=0;whiteSpace=wrap;html=1;fillColor=#eee;strokeColor=none;" parent="1" vertex="1">
                    <mxGeometry x="34" y="246" width="1513" height="673" as="geometry"/>
                </mxCell>
                <mxCell id="1672d66443f91eb5-1" value="&lt;p style=&quot;margin: 0px ; margin-top: 4px ; margin-left: 10px ; text-align: left&quot;&gt;&lt;b&gt;UML Théatre&lt;/b&gt;&lt;/p&gt;" style="html=1;strokeWidth=1;shape=mxgraph.sysml.package;html=1;overflow=fill;whiteSpace=wrap;fillColor=none;gradientColor=none;fontSize=12;align=center;labelX=327.64;" parent="1" vertex="1">
                    <mxGeometry x="31" y="244" width="1515" height="675" as="geometry"/>
                </mxCell>
                <mxCell id="qlMzOhEKe-4_RTLxzth_-34" style="edgeStyle=orthogonalEdgeStyle;rounded=0;orthogonalLoop=1;jettySize=auto;html=1;entryX=0.5;entryY=1;entryDx=0;entryDy=0;endArrow=none;endFill=0;exitX=1;exitY=0.5;exitDx=0;exitDy=0;" parent="1" source="qlMzOhEKe-4_RTLxzth_-57" target="qlMzOhEKe-4_RTLxzth_-6" edge="1">
                    <mxGeometry relative="1" as="geometry">
                        <mxPoint x="470" y="369" as="targetPoint"/>
                        <Array as="points">
                            <mxPoint x="595" y="468"/>
                        </Array>
                    </mxGeometry>
                </mxCell>
                <mxCell id="qlMzOhEKe-4_RTLxzth_-1" value="Spectacle" style="swimlane;fontStyle=1;align=center;verticalAlign=top;childLayout=stackLayout;horizontal=1;startSize=26;horizontalStack=0;resizeParent=1;resizeParentMax=0;resizeLast=0;collapsible=1;marginBottom=0;fillColor=#FFFFCC;" parent="1" vertex="1">
                    <mxGeometry x="60" y="321" width="250" height="80" as="geometry"/>
                </mxCell>
                <mxCell id="qlMzOhEKe-4_RTLxzth_-2" value="- noSpec : INT {ID}&#10;- nomSpec : STRING&#10;- prixBaseSpec : FLOAT" style="text;strokeColor=none;fillColor=none;align=left;verticalAlign=top;spacingLeft=4;spacingRight=4;overflow=hidden;rotatable=0;points=[[0,0.5],[1,0.5]];portConstraint=eastwest;" parent="qlMzOhEKe-4_RTLxzth_-1" vertex="1">
                    <mxGeometry y="26" width="250" height="54" as="geometry"/>
                </mxCell>
                <mxCell id="qlMzOhEKe-4_RTLxzth_-6" value="Salle" style="swimlane;fontStyle=1;align=center;verticalAlign=top;childLayout=stackLayout;horizontal=1;startSize=26;horizontalStack=0;resizeParent=1;resizeParentMax=0;resizeLast=0;collapsible=1;marginBottom=0;" parent="1" vertex="1">
                    <mxGeometry x="470" y="330" width="250" height="52" as="geometry">
                        <mxRectangle x="470" y="330" width="55" height="26" as="alternateBounds"/>
                    </mxGeometry>
                </mxCell>
                <mxCell id="qlMzOhEKe-4_RTLxzth_-10" value="Place" style="swimlane;fontStyle=1;align=center;verticalAlign=top;childLayout=stackLayout;horizontal=1;startSize=26;horizontalStack=0;resizeParent=1;resizeParentMax=0;resizeLast=0;collapsible=1;marginBottom=0;fillColor=#FFE6CC;" parent="1" vertex="1">
                    <mxGeometry x="902" y="484" width="250" height="70" as="geometry"/>
                </mxCell>
                <mxCell id="qlMzOhEKe-4_RTLxzth_-11" value="- noRang : INT {ID}&#10;- noPlace : INT {ID}" style="text;strokeColor=none;fillColor=none;align=left;verticalAlign=top;spacingLeft=4;spacingRight=4;overflow=hidden;rotatable=0;points=[[0,0.5],[1,0.5]];portConstraint=eastwest;" parent="qlMzOhEKe-4_RTLxzth_-10" vertex="1">
                    <mxGeometry y="26" width="250" height="44" as="geometry"/>
                </mxCell>
                <mxCell id="qlMzOhEKe-4_RTLxzth_-14" value="CATEGORIE" style="swimlane;fontStyle=1;align=center;verticalAlign=top;childLayout=stackLayout;horizontal=1;startSize=26;horizontalStack=0;resizeParent=1;resizeParentMax=0;resizeLast=0;collapsible=1;marginBottom=0;fillColor=#FFE6CC;" parent="1" vertex="1">
                    <mxGeometry x="1263" y="321" width="250" height="70" as="geometry"/>
                </mxCell>
                <mxCell id="qlMzOhEKe-4_RTLxzth_-15" value="- CatZone : CHAR {ID}&#10;- tauxZone : FLOAT" style="text;strokeColor=none;fillColor=none;align=left;verticalAlign=top;spacingLeft=4;spacingRight=4;overflow=hidden;rotatable=0;points=[[0,0.5],[1,0.5]];portConstraint=eastwest;" parent="qlMzOhEKe-4_RTLxzth_-14" vertex="1">
                    <mxGeometry y="26" width="250" height="44" as="geometry"/>
                </mxCell>
                <mxCell id="qlMzOhEKe-4_RTLxzth_-50" style="edgeStyle=orthogonalEdgeStyle;rounded=0;orthogonalLoop=1;jettySize=auto;html=1;endArrow=none;endFill=0;exitX=1;exitY=0.5;exitDx=0;exitDy=0;" parent="1" source="qlMzOhEKe-4_RTLxzth_-19" edge="1">
                    <mxGeometry relative="1" as="geometry">
                        <mxPoint x="1027" y="555" as="targetPoint"/>
                        <Array as="points">
                            <mxPoint x="1027" y="665"/>
                        </Array>
                    </mxGeometry>
                </mxCell>
                <mxCell id="qlMzOhEKe-4_RTLxzth_-18" value="Ticket" style="swimlane;fontStyle=1;align=center;verticalAlign=top;childLayout=stackLayout;horizontal=1;startSize=26;horizontalStack=0;resizeParent=1;resizeParentMax=0;resizeLast=0;collapsible=1;marginBottom=0;fillColor=#CCE5FF;" parent="1" vertex="1">
                    <mxGeometry x="693" y="619" width="250" height="66" as="geometry"/>
                </mxCell>
                <mxCell id="qlMzOhEKe-4_RTLxzth_-19" value="- noTicket : INT {ID}&#10;- /prixTotal : FLOAT" style="text;strokeColor=none;fillColor=none;align=left;verticalAlign=top;spacingLeft=4;spacingRight=4;overflow=hidden;rotatable=0;points=[[0,0.5],[1,0.5]];portConstraint=eastwest;" parent="qlMzOhEKe-4_RTLxzth_-18" vertex="1">
                    <mxGeometry y="26" width="250" height="40" as="geometry"/>
                </mxCell>
                <mxCell id="qlMzOhEKe-4_RTLxzth_-36" value="Zone&#10;" style="swimlane;fontStyle=1;align=center;verticalAlign=top;childLayout=stackLayout;horizontal=1;startSize=26;horizontalStack=0;resizeParent=1;resizeParentMax=0;resizeLast=0;collapsible=1;marginBottom=0;fillColor=#FFE6CC;" parent="1" vertex="1">
                    <mxGeometry x="900" y="331" width="250" height="50" as="geometry"/>
                </mxCell>
                <mxCell id="qlMzOhEKe-4_RTLxzth_-37" value="- noZone : INT {ID}" style="text;strokeColor=none;fillColor=none;align=left;verticalAlign=top;spacingLeft=4;spacingRight=4;overflow=hidden;rotatable=0;points=[[0,0.5],[1,0.5]];portConstraint=eastwest;" parent="qlMzOhEKe-4_RTLxzth_-36" vertex="1">
                    <mxGeometry y="26" width="250" height="24" as="geometry"/>
                </mxCell>
                <mxCell id="qlMzOhEKe-4_RTLxzth_-38" value="" style="edgeStyle=orthogonalEdgeStyle;rounded=0;orthogonalLoop=1;jettySize=auto;html=1;entryX=0;entryY=0.5;entryDx=0;entryDy=0;endArrow=none;endFill=0;" parent="1" target="qlMzOhEKe-4_RTLxzth_-37" edge="1">
                    <mxGeometry x="-0.1579" y="9" relative="1" as="geometry">
                        <mxPoint x="720" y="369" as="sourcePoint"/>
                        <mxPoint as="offset"/>
                    </mxGeometry>
                </mxCell>
                <mxCell id="qlMzOhEKe-4_RTLxzth_-48" style="edgeStyle=orthogonalEdgeStyle;rounded=0;orthogonalLoop=1;jettySize=auto;html=1;endArrow=none;endFill=0;" parent="1" source="qlMzOhEKe-4_RTLxzth_-37" target="qlMzOhEKe-4_RTLxzth_-15" edge="1">
                    <mxGeometry relative="1" as="geometry"/>
                </mxCell>
                <mxCell id="qlMzOhEKe-4_RTLxzth_-52" value="Vente" style="swimlane;fontStyle=1;align=center;verticalAlign=top;childLayout=stackLayout;horizontal=1;startSize=26;horizontalStack=0;resizeParent=1;resizeParentMax=0;resizeLast=0;collapsible=1;marginBottom=0;fillColor=#CCE5FF;" parent="1" vertex="1">
                    <mxGeometry x="266" y="621" width="250" height="64" as="geometry"/>
                </mxCell>
                <mxCell id="qlMzOhEKe-4_RTLxzth_-53" value="- noAchat : INT {ID}&#10;- dateAchat : Date" style="text;strokeColor=none;fillColor=none;align=left;verticalAlign=top;spacingLeft=4;spacingRight=4;overflow=hidden;rotatable=0;points=[[0,0.5],[1,0.5]];portConstraint=eastwest;" parent="qlMzOhEKe-4_RTLxzth_-52" vertex="1">
                    <mxGeometry y="26" width="250" height="38" as="geometry"/>
                </mxCell>
                <mxCell id="qlMzOhEKe-4_RTLxzth_-54" style="edgeStyle=orthogonalEdgeStyle;rounded=0;orthogonalLoop=1;jettySize=auto;html=1;entryX=0;entryY=0.5;entryDx=0;entryDy=0;endArrow=none;endFill=0;exitX=1;exitY=0.5;exitDx=0;exitDy=0;" parent="1" source="qlMzOhEKe-4_RTLxzth_-53" target="qlMzOhEKe-4_RTLxzth_-19" edge="1">
                    <mxGeometry relative="1" as="geometry">
                        <Array as="points">
                            <mxPoint x="693" y="665"/>
                        </Array>
                    </mxGeometry>
                </mxCell>
                <mxCell id="qlMzOhEKe-4_RTLxzth_-56" value="Representation" style="swimlane;fontStyle=1;align=center;verticalAlign=top;childLayout=stackLayout;horizontal=1;startSize=26;horizontalStack=0;resizeParent=1;resizeParentMax=0;resizeLast=0;collapsible=1;marginBottom=0;fillColor=#FFFFCC;" parent="1" vertex="1">
                    <mxGeometry x="280" y="430" width="250" height="80" as="geometry"/>
                </mxCell>
                <mxCell id="qlMzOhEKe-4_RTLxzth_-57" value="- noRep : INT {ID}&#10;- dateRep : Date&#10;- promRep : FLOAT" style="text;strokeColor=none;fillColor=none;align=left;verticalAlign=top;spacingLeft=4;spacingRight=4;overflow=hidden;rotatable=0;points=[[0,0.5],[1,0.5]];portConstraint=eastwest;" parent="qlMzOhEKe-4_RTLxzth_-56" vertex="1">
                    <mxGeometry y="26" width="250" height="54" as="geometry"/>
                </mxCell>
                <mxCell id="qlMzOhEKe-4_RTLxzth_-58" value="" style="edgeStyle=orthogonalEdgeStyle;rounded=0;orthogonalLoop=1;jettySize=auto;html=1;entryX=0.36;entryY=1;entryDx=0;entryDy=0;entryPerimeter=0;endArrow=none;endFill=0;" parent="1" source="qlMzOhEKe-4_RTLxzth_-57" target="qlMzOhEKe-4_RTLxzth_-2" edge="1">
                    <mxGeometry x="-0.0821" y="-8" relative="1" as="geometry">
                        <mxPoint as="offset"/>
                    </mxGeometry>
                </mxCell>
                <mxCell id="qlMzOhEKe-4_RTLxzth_-59" value="Reduction" style="swimlane;fontStyle=1;align=center;verticalAlign=top;childLayout=stackLayout;horizontal=1;startSize=26;horizontalStack=0;resizeParent=1;resizeParentMax=0;resizeLast=0;collapsible=1;marginBottom=0;fillColor=#CCE5FF;" parent="1" vertex="1">
                    <mxGeometry x="693" y="791" width="250" height="70" as="geometry"/>
                </mxCell>
                <mxCell id="qlMzOhEKe-4_RTLxzth_-60" value="- typeReduc : type {ID}&#10;- tauxReduc : FLOAT" style="text;strokeColor=none;fillColor=none;align=left;verticalAlign=top;spacingLeft=4;spacingRight=4;overflow=hidden;rotatable=0;points=[[0,0.5],[1,0.5]];portConstraint=eastwest;" parent="qlMzOhEKe-4_RTLxzth_-59" vertex="1">
                    <mxGeometry y="26" width="250" height="44" as="geometry"/>
                </mxCell>
                <mxCell id="qlMzOhEKe-4_RTLxzth_-70" value="&lt;&lt; enumeration &gt;&gt;&#10;Type" style="swimlane;fontStyle=1;align=center;verticalAlign=top;childLayout=stackLayout;horizontal=1;startSize=40;horizontalStack=0;resizeParent=1;resizeParentMax=0;resizeLast=0;collapsible=1;marginBottom=0;fillColor=#CCFFCC;" parent="1" vertex="1">
                    <mxGeometry x="1102" y="752" width="250" height="134" as="geometry"/>
                </mxCell>
                <mxCell id="qlMzOhEKe-4_RTLxzth_-71" value="sans réduction&#10;adhérent&#10;scolaire&#10;étudiant&#10;militaire&#10;sénior" style="text;strokeColor=none;fillColor=none;align=left;verticalAlign=top;spacingLeft=4;spacingRight=4;overflow=hidden;rotatable=0;points=[[0,0.5],[1,0.5]];portConstraint=eastwest;" parent="qlMzOhEKe-4_RTLxzth_-70" vertex="1">
                    <mxGeometry y="40" width="250" height="94" as="geometry"/>
                </mxCell>
                <mxCell id="qlMzOhEKe-4_RTLxzth_-73" style="edgeStyle=orthogonalEdgeStyle;rounded=0;orthogonalLoop=1;jettySize=auto;html=1;endArrow=none;endFill=0;dashed=1;" parent="1" source="qlMzOhEKe-4_RTLxzth_-60" target="qlMzOhEKe-4_RTLxzth_-71" edge="1">
                    <mxGeometry relative="1" as="geometry"/>
                </mxCell>
                <mxCell id="osN3bbdli1dLjYI9F6a9-6" value="0 ..*" style="text;html=1;align=center;verticalAlign=middle;resizable=0;points=[];autosize=1;strokeColor=none;fillColor=none;" parent="1" vertex="1">
                    <mxGeometry x="781" y="687" width="40" height="20" as="geometry"/>
                </mxCell>
                <mxCell id="osN3bbdli1dLjYI9F6a9-9" value="0 ..*" style="text;html=1;align=center;verticalAlign=middle;resizable=0;points=[];autosize=1;strokeColor=none;fillColor=none;" parent="1" vertex="1">
                    <mxGeometry x="530" y="450" width="40" height="20" as="geometry"/>
                </mxCell>
                <mxCell id="osN3bbdli1dLjYI9F6a9-16" value="1..*" style="text;html=1;align=center;verticalAlign=middle;resizable=0;points=[];autosize=1;strokeColor=none;fillColor=none;" parent="1" vertex="1">
                    <mxGeometry x="1148" y="351" width="30" height="20" as="geometry"/>
                </mxCell>
                <mxCell id="osN3bbdli1dLjYI9F6a9-17" value="1" style="text;html=1;align=center;verticalAlign=middle;resizable=0;points=[];autosize=1;strokeColor=none;fillColor=none;" parent="1" vertex="1">
                    <mxGeometry x="1242" y="349" width="20" height="20" as="geometry"/>
                </mxCell>
                <mxCell id="osN3bbdli1dLjYI9F6a9-22" value="1" style="text;html=1;align=center;verticalAlign=middle;resizable=0;points=[];autosize=1;strokeColor=none;fillColor=none;" parent="1" vertex="1">
                    <mxGeometry x="391" y="512" width="20" height="20" as="geometry"/>
                </mxCell>
                <mxCell id="osN3bbdli1dLjYI9F6a9-23" value="0 .. *" style="text;html=1;align=center;verticalAlign=middle;resizable=0;points=[];autosize=1;strokeColor=none;fillColor=none;" parent="1" vertex="1">
                    <mxGeometry x="390" y="601" width="40" height="20" as="geometry"/>
                </mxCell>
                <mxCell id="4" value="&lt;&lt; enumeration &gt;&gt;&#10;Cat" style="swimlane;fontStyle=1;align=center;verticalAlign=top;childLayout=stackLayout;horizontal=1;startSize=40;horizontalStack=0;resizeParent=1;resizeParentMax=0;resizeLast=0;collapsible=1;marginBottom=0;fillColor=#CCFFCC;" parent="1" vertex="1">
                    <mxGeometry x="1266" y="458" width="250" height="99" as="geometry"/>
                </mxCell>
                <mxCell id="5" value="poulailler&#10;balcon&#10;orchestre" style="text;strokeColor=none;fillColor=none;align=left;verticalAlign=top;spacingLeft=4;spacingRight=4;overflow=hidden;rotatable=0;points=[[0,0.5],[1,0.5]];portConstraint=eastwest;" parent="4" vertex="1">
                    <mxGeometry y="40" width="250" height="59" as="geometry"/>
                </mxCell>
                <mxCell id="osN3bbdli1dLjYI9F6a9-19" value="1..*" style="text;html=1;align=center;verticalAlign=middle;resizable=0;points=[];autosize=1;strokeColor=none;fillColor=none;" parent="1" vertex="1">
                    <mxGeometry x="1025" y="464" width="30" height="20" as="geometry"/>
                </mxCell>
                <mxCell id="10" value="" style="endArrow=none;html=1;entryX=0.505;entryY=1.067;entryDx=0;entryDy=0;entryPerimeter=0;" parent="1" target="qlMzOhEKe-4_RTLxzth_-37" edge="1">
                    <mxGeometry width="50" height="50" relative="1" as="geometry">
                        <mxPoint x="1026" y="483" as="sourcePoint"/>
                        <mxPoint x="1052" y="425" as="targetPoint"/>
                    </mxGeometry>
                </mxCell>
                <mxCell id="15" value="" style="endArrow=none;dashed=1;html=1;exitX=0.5;exitY=0;exitDx=0;exitDy=0;entryX=0.51;entryY=1.011;entryDx=0;entryDy=0;entryPerimeter=0;" parent="1" source="4" target="qlMzOhEKe-4_RTLxzth_-15" edge="1">
                    <mxGeometry width="50" height="50" relative="1" as="geometry">
                        <mxPoint x="1364" y="449" as="sourcePoint"/>
                        <mxPoint x="1414" y="399" as="targetPoint"/>
                    </mxGeometry>
                </mxCell>
                <mxCell id="20" value="se produit" style="text;html=1;align=center;verticalAlign=middle;resizable=0;points=[];autosize=1;strokeColor=none;fillColor=none;" vertex="1" parent="1">
                    <mxGeometry x="598" y="453" width="63" height="18" as="geometry"/>
                </mxCell>
                <mxCell id="21" value="séparée en" style="text;html=1;align=center;verticalAlign=middle;resizable=0;points=[];autosize=1;strokeColor=none;fillColor=none;" vertex="1" parent="1">
                    <mxGeometry x="768" y="350" width="70" height="18" as="geometry"/>
                </mxCell>
                <mxCell id="22" value="1" style="text;html=1;align=center;verticalAlign=middle;resizable=0;points=[];autosize=1;strokeColor=none;fillColor=none;" vertex="1" parent="1">
                    <mxGeometry x="721" y="351" width="16" height="18" as="geometry"/>
                </mxCell>
                <mxCell id="23" value="1..*" style="text;html=1;align=center;verticalAlign=middle;resizable=0;points=[];autosize=1;strokeColor=none;fillColor=none;" vertex="1" parent="1">
                    <mxGeometry x="871" y="350" width="28" height="18" as="geometry"/>
                </mxCell>
                <mxCell id="24" value="possède" style="text;html=1;align=center;verticalAlign=middle;resizable=0;points=[];autosize=1;strokeColor=none;fillColor=none;" vertex="1" parent="1">
                    <mxGeometry x="1181" y="350" width="56" height="18" as="geometry"/>
                </mxCell>
                <mxCell id="25" value="1" style="text;html=1;align=center;verticalAlign=middle;resizable=0;points=[];autosize=1;strokeColor=none;fillColor=none;" vertex="1" parent="1">
                    <mxGeometry x="1009" y="557" width="16" height="18" as="geometry"/>
                </mxCell>
                <mxCell id="26" value="lié" style="text;html=1;align=center;verticalAlign=middle;resizable=0;points=[];autosize=1;strokeColor=none;fillColor=none;" vertex="1" parent="1">
                    <mxGeometry x="1002" y="605" width="22" height="18" as="geometry"/>
                </mxCell>
                <mxCell id="27" value="0..1" style="text;html=1;align=center;verticalAlign=middle;resizable=0;points=[];autosize=1;strokeColor=none;fillColor=none;" vertex="1" parent="1">
                    <mxGeometry x="944" y="646" width="30" height="18" as="geometry"/>
                </mxCell>
                <mxCell id="28" value="1" style="text;html=1;align=center;verticalAlign=middle;resizable=0;points=[];autosize=1;strokeColor=none;fillColor=none;" vertex="1" parent="1">
                    <mxGeometry x="799" y="771" width="16" height="18" as="geometry"/>
                </mxCell>
                <mxCell id="29" value="possède" style="text;html=1;align=center;verticalAlign=middle;resizable=0;points=[];autosize=1;strokeColor=none;fillColor=none;" vertex="1" parent="1">
                    <mxGeometry x="761" y="733" width="56" height="18" as="geometry"/>
                </mxCell>
                <mxCell id="30" value="1" style="text;html=1;align=center;verticalAlign=middle;resizable=0;points=[];autosize=1;strokeColor=none;fillColor=none;" vertex="1" parent="1">
                    <mxGeometry x="598" y="386" width="16" height="18" as="geometry"/>
                </mxCell>
                <mxCell id="31" value="1" style="text;html=1;align=center;verticalAlign=middle;resizable=0;points=[];autosize=1;strokeColor=none;fillColor=none;" vertex="1" parent="1">
                    <mxGeometry x="152" y="405" width="16" height="18" as="geometry"/>
                </mxCell>
                <mxCell id="32" value="0..*" style="text;html=1;align=center;verticalAlign=middle;resizable=0;points=[];autosize=1;strokeColor=none;fillColor=none;" vertex="1" parent="1">
                    <mxGeometry x="248" y="462" width="28" height="18" as="geometry"/>
                </mxCell>
                <mxCell id="33" value="représente" style="text;html=1;align=center;verticalAlign=middle;resizable=0;points=[];autosize=1;strokeColor=none;fillColor=none;" vertex="1" parent="1">
                    <mxGeometry x="153" y="460" width="68" height="18" as="geometry"/>
                </mxCell>
                <mxCell id="34" value="lié" style="text;html=1;align=center;verticalAlign=middle;resizable=0;points=[];autosize=1;strokeColor=none;fillColor=none;" vertex="1" parent="1">
                    <mxGeometry x="393" y="555" width="22" height="18" as="geometry"/>
                </mxCell>
                <mxCell id="36" value="1" style="text;html=1;align=center;verticalAlign=middle;resizable=0;points=[];autosize=1;strokeColor=none;fillColor=none;" vertex="1" parent="1">
                    <mxGeometry x="518" y="668" width="20" height="20" as="geometry"/>
                </mxCell>
                <mxCell id="37" value="1..*" style="text;html=1;align=center;verticalAlign=middle;resizable=0;points=[];autosize=1;strokeColor=none;fillColor=none;" vertex="1" parent="1">
                    <mxGeometry x="664" y="668" width="28" height="18" as="geometry"/>
                </mxCell>
                <mxCell id="38" value="possède" style="text;html=1;align=center;verticalAlign=middle;resizable=0;points=[];autosize=1;strokeColor=none;fillColor=none;" vertex="1" parent="1">
                    <mxGeometry x="577" y="669" width="56" height="18" as="geometry"/>
                </mxCell>
                <mxCell id="45" value="" style="endArrow=none;html=1;entryX=0.5;entryY=0.983;entryDx=0;entryDy=0;entryPerimeter=0;exitX=0.5;exitY=0;exitDx=0;exitDy=0;" edge="1" parent="1" source="qlMzOhEKe-4_RTLxzth_-59" target="qlMzOhEKe-4_RTLxzth_-19">
                    <mxGeometry width="50" height="50" relative="1" as="geometry">
                        <mxPoint x="806" y="752" as="sourcePoint"/>
                        <mxPoint x="856" y="702" as="targetPoint"/>
                    </mxGeometry>
                </mxCell>
                <mxCell id="46" value="" style="endArrow=none;html=1;entryX=0.04;entryY=-0.094;entryDx=0;entryDy=0;entryPerimeter=0;exitX=0.5;exitY=0;exitDx=0;exitDy=0;" edge="1" parent="1" source="qlMzOhEKe-4_RTLxzth_-52" target="osN3bbdli1dLjYI9F6a9-22">
                    <mxGeometry width="50" height="50" relative="1" as="geometry">
                        <mxPoint x="345" y="588" as="sourcePoint"/>
                        <mxPoint x="395" y="538" as="targetPoint"/>
                    </mxGeometry>
                </mxCell>
            </root>
        </mxGraphModel>
    </diagram>
</mxfile>